<svg width="361" height="323" viewBox="0 0 361 323" fill="none" xmlns="http://www.w3.org/2000/svg">
<rect width="175.855" height="184.92" rx="14" transform="matrix(0.999995 -0.00323454 0.451106 0.89247 50.8636 79.5159)" fill="#FAC77B"/>
<path d="M57.1791 92.0104C53.6912 85.1099 57.1316 79.4956 64.8635 79.4706L212.718 78.9923C220.45 78.9673 229.545 84.5411 233.033 91.4416L243.892 112.925L68.038 113.494L57.1791 92.0104Z" fill="#B08D58"/>
<rect width="140.503" height="2.71941" rx="1.35971" transform="matrix(0.999995 -0.00323454 0.451106 0.89247 96.3902 133.66)" fill="#B08D58"/>
<rect width="140.503" height="2.71941" rx="1.35971" transform="matrix(0.999995 -0.00323454 0.451106 0.89247 105.386 151.458)" fill="#B08D58"/>
<rect width="140.503" height="2.71941" rx="1.35971" transform="matrix(0.999995 -0.00323454 0.451106 0.89247 114.382 169.256)" fill="#B08D58"/>
<rect width="140.503" height="2.71941" rx="1.35971" transform="matrix(0.999995 -0.00323454 0.451106 0.89247 123.379 187.054)" fill="#B08D58"/>
<rect width="140.503" height="2.71941" rx="1.35971" transform="matrix(0.999995 -0.00323454 0.451106 0.89247 132.375 204.852)" fill="#B08D58"/>
<rect width="140.503" height="2.71941" rx="1.35971" transform="matrix(0.999995 -0.00323454 0.451106 0.89247 141.371 222.65)" fill="#B08D58"/>
<rect x="0.72555" y="0.444618" width="12.5971" height="12.5971" transform="matrix(0.999995 -0.00323454 0.451106 0.89247 89.647 120.766)" stroke="#B08D58"/>
<rect x="0.72555" y="0.444618" width="12.5971" height="12.5971" transform="matrix(0.999995 -0.00323454 0.451106 0.89247 98.6431 138.564)" stroke="#B08D58"/>
<rect x="0.72555" y="0.444618" width="12.5971" height="12.5971" transform="matrix(0.999995 -0.00323454 0.451106 0.89247 107.639 156.362)" stroke="#B08D58"/>
<rect x="0.72555" y="0.444618" width="12.5971" height="12.5971" transform="matrix(0.999995 -0.00323454 0.451106 0.89247 116.635 174.16)" stroke="#B08D58"/>
<rect x="0.72555" y="0.444618" width="12.5971" height="12.5971" transform="matrix(0.999995 -0.00323454 0.451106 0.89247 125.631 191.958)" stroke="#B08D58"/>
<rect x="0.72555" y="0.444618" width="12.5971" height="12.5971" transform="matrix(0.999995 -0.00323454 0.451106 0.89247 134.628 209.756)" stroke="#B08D58"/>
<path d="M113.891 128.742C113.03 127.036 111.746 125.289 116.357 127.036C118.469 127.836 118.933 128.379 119.928 127.378C120.423 126.88 122.246 126.745 123.441 126.825C124.997 126.928 126.323 127.428 127.886 127.423C130.049 127.416 132.256 126.788 134.48 127.025C136.191 127.207 137.686 127.436 139.364 127.386C141.599 127.319 143.32 126.712 145.441 126.518" stroke="black" stroke-linecap="round"/>
<path d="M157.417 128.601C156.555 126.896 154.782 125.149 163.944 126.882C168.139 127.676 168.834 128.218 171.66 127.211C173.067 126.71 177.196 126.567 179.802 126.642C183.192 126.74 185.827 127.236 189.302 127.225C194.107 127.209 199.395 126.571 204.188 126.799C207.874 126.975 211.052 127.199 214.808 127.142C219.811 127.066 224.007 126.451 228.836 126.248" stroke="black" stroke-linecap="round"/>
<path d="M122.893 146.539C122.032 144.834 120.559 143.087 126.928 144.829C129.845 145.627 130.398 146.169 132.101 145.166C132.948 144.667 135.662 144.529 137.403 144.607C139.667 144.708 141.498 145.206 143.8 145.199C146.984 145.189 150.381 144.557 153.598 144.79C156.072 144.969 158.217 145.197 160.698 145.144C164.002 145.074 166.68 144.464 169.847 144.266" stroke="black" stroke-linecap="round"/>
<path d="M130.689 161.91C129.827 160.205 127.521 158.461 141.645 160.178C148.113 160.964 149.061 161.505 153.885 160.492C156.286 159.987 162.932 159.837 167.076 159.907C172.468 159.998 176.53 160.489 182.09 160.471C189.778 160.446 198.426 159.797 206.022 160.017C211.863 160.185 216.876 160.403 222.899 160.339C230.922 160.254 237.819 159.63 245.601 159.417" stroke="black" stroke-linecap="round"/>
<path d="M94.7055 126.646C96.1818 127.332 97.6043 128.06 99.0207 128.9C99.4118 129.132 100.391 129.996 100.329 129.473C100.09 127.437 100.61 125.706 101.29 124.047C102.148 121.955 103.46 120.62 105.131 119.104" stroke="black" stroke-width="3" stroke-linecap="round"/>
<path d="M103.219 143.578C104.695 144.264 106.118 144.991 107.534 145.831C107.925 146.064 108.904 146.928 108.843 146.405C108.604 144.369 109.123 142.638 109.804 140.979C110.662 138.886 111.973 137.552 113.645 136.035" stroke="black" stroke-width="3" stroke-linecap="round"/>
</svg>
